<svg xmlns="http://www.w3.org/2000/svg" viewBox="0 0 100 100" width="100" height="100" role="img" aria-label="NoCashFlow">
  <rect width="100" height="100" rx="22" ry="22" fill="#B0442B"/>
  <g fill="#F3EEE3" transform="translate(13.96 71.28) scale(0.03468 -0.03468)">
    <path d="M414 8Q414 5 411.5 2.5Q409 0 404 0H20Q15 0 12.5 2.5Q10 5 10 8Q10 14 22 18L42 24Q107 44 153.5 92.5Q200 141 200 227V1154Q200 1166 199.0 1171.5Q198 1177 190 1190L94 1364Q89 1374 82.5 1383.0Q76 1392 76 1396Q76 1398 78.0 1399.0Q80 1400 86 1400H554Q559 1400 563.5 1397.0Q568 1394 572 1386L1170 222L1150 174V1173Q1150 1259 1104.0 1308.0Q1058 1357 992 1376L972 1382Q960 1386 960 1392Q960 1395 962.5 1397.5Q965 1400 970 1400H1354Q1359 1400 1361.5 1397.5Q1364 1395 1364 1392Q1364 1386 1352 1382L1332 1376Q1267 1357 1220.5 1308.0Q1174 1259 1174 1173V232Q1174 219 1178.0 208.5Q1182 198 1186 190L1262 58Q1276 33 1280.0 23.0Q1284 13 1284 8Q1284 5 1281.0 2.5Q1278 0 1270 0H832Q818 0 818 16Q818 22 815.0 33.5Q812 45 808 52L164 1254H224V226Q224 141 271.0 92.5Q318 44 382 24L402 18Q414 14 414 8Z"/>
    <g transform="translate(1404.0 0)"><path d="M354 604Q338 560 316.5 498.5Q295 437 270.5 364.5Q246 292 219.5 215.0Q193 138 167.0 62.5Q141 -13 117.5 -81.0Q94 -149 74 -203Q69 -214 61.5 -219.5Q54 -225 43 -221Q33 -217 30.5 -208.5Q28 -200 32 -187Q49 -141 73.0 -77.5Q97 -14 125.0 59.5Q153 133 182.5 210.0Q212 287 240.5 361.5Q269 436 293.0 500.0Q317 564 334 611Q352 659 375.0 725.0Q398 791 424.5 867.0Q451 943 478.5 1022.5Q506 1102 532.0 1178.0Q558 1254 580.5 1319.0Q603 1384 620 1430Q625 1441 633.0 1446.5Q641 1452 651 1448Q661 1444 663.5 1435.5Q666 1427 662 1414Q642 1359 616.0 1290.5Q590 1222 561.0 1146.0Q532 1070 502.5 993.0Q473 916 445.0 843.5Q417 771 393.5 709.5Q370 648 354 604Z"/></g>
  </g>
</svg>