<svg xmlns="http://www.w3.org/2000/svg" viewBox="0 0 2194 340" width="2194" height="340" role="img" aria-label="NO/CASHFLOW"><g transform="translate(46 46) scale(0.48438)"><rect width="512" height="512" rx="96" fill="#B0442B"/><g fill="#F3EEE3" transform="matrix(0.131111 0 0 -0.131111 76.927518 314.344212)"><path d="M550 68Q550 37 529.5 19.0Q509 1 465 0H154Q110 1 89.0 19.0Q68 37 68 68Q68 120 126 145L148 155Q193 176 211.5 203.0Q230 230 230 288V1034Q230 1072 223.0 1092.5Q216 1113 190 1147L113 1250Q91 1281 82.5 1298.5Q74 1316 74 1335Q74 1366 95.0 1383.0Q116 1400 150 1400H487Q527 1400 552.5 1386.5Q578 1373 604 1336L1251 427L1191 250V1112Q1191 1168 1175.0 1195.0Q1159 1222 1109 1245L1088 1255Q1030 1283 1030 1332Q1030 1364 1051.0 1382.0Q1072 1400 1115 1400H1426Q1470 1400 1491.0 1382.0Q1512 1364 1512 1332Q1512 1281 1454 1255L1432 1245Q1387 1225 1368.5 1198.0Q1350 1171 1350 1112V368Q1350 328 1356.5 297.0Q1363 266 1381 241L1443 156Q1469 122 1474.0 104.5Q1479 87 1479 68Q1479 37 1458.0 18.5Q1437 0 1402 0H1012Q946 0 946 53Q946 71 938.5 88.5Q931 106 897 153L247 1064L389 1153V287Q389 233 405.5 206.0Q422 179 471 155L492 145Q550 119 550 68Z"/><g transform="translate(1640 0)"><path d="M591 574Q567 521 538.5 452.0Q510 383 480.0 305.5Q450 228 420.0 148.5Q390 69 361.0 -6.5Q332 -82 306.0 -146.5Q280 -211 258 -257Q237 -301 193.0 -311.5Q149 -322 93 -296Q37 -270 16.5 -229.5Q-4 -189 17 -145Q39 -98 71.0 -36.5Q103 25 142.5 95.5Q182 166 223.5 240.0Q265 314 305.0 387.0Q345 460 379.5 525.5Q414 591 439 644Q464 697 492.0 766.0Q520 835 550.0 912.5Q580 990 610.0 1069.5Q640 1149 669.0 1224.5Q698 1300 724.5 1364.5Q751 1429 772 1475Q793 1519 837.0 1529.5Q881 1540 937 1514Q993 1488 1013.5 1447.5Q1034 1407 1013 1363Q992 1317 959.5 1255.0Q927 1193 887.5 1122.5Q848 1052 806.5 978.0Q765 904 725.0 831.0Q685 758 650.5 692.5Q616 627 591 574Z"/></g></g>
  <rect x="167.52" y="388.36" width="176.96" height="10.23" rx="5.11" fill="#F3EEE3"/></g><g fill="#16181C" transform="matrix(0.107143 0 0 -0.107143 350.000 237.000)"><g transform="translate(0 0)"><path d="M550 68Q550 37 529.5 19.0Q509 1 465 0H154Q110 1 89.0 19.0Q68 37 68 68Q68 120 126 145L148 155Q193 176 211.5 203.0Q230 230 230 288V1034Q230 1072 223.0 1092.5Q216 1113 190 1147L113 1250Q91 1281 82.5 1298.5Q74 1316 74 1335Q74 1366 95.0 1383.0Q116 1400 150 1400H487Q527 1400 552.5 1386.5Q578 1373 604 1336L1251 427L1191 250V1112Q1191 1168 1175.0 1195.0Q1159 1222 1109 1245L1088 1255Q1030 1283 1030 1332Q1030 1364 1051.0 1382.0Q1072 1400 1115 1400H1426Q1470 1400 1491.0 1382.0Q1512 1364 1512 1332Q1512 1281 1454 1255L1432 1245Q1387 1225 1368.5 1198.0Q1350 1171 1350 1112V368Q1350 328 1356.5 297.0Q1363 266 1381 241L1443 156Q1469 122 1474.0 104.5Q1479 87 1479 68Q1479 37 1458.0 18.5Q1437 0 1402 0H1012Q946 0 946 53Q946 71 938.5 88.5Q931 106 897 153L247 1064L389 1153V287Q389 233 405.5 206.0Q422 179 471 155L492 145Q550 119 550 68Z"/></g><g transform="translate(1545 0)"><path d="M799 1440Q974 1440 1112.5 1386.5Q1251 1333 1348.0 1234.0Q1445 1135 1496.5 997.5Q1548 860 1548 691Q1548 538 1497.0 405.0Q1446 272 1350.0 172.0Q1254 72 1117.5 16.0Q981 -40 810 -40Q636 -40 497.5 13.5Q359 67 261.5 166.0Q164 265 112.5 402.5Q61 540 61 709Q61 862 112.0 995.0Q163 1128 259.0 1228.0Q355 1328 491.5 1384.0Q628 1440 799 1440ZM1071 417Q1071 551 1049.5 679.5Q1028 808 991.0 920.0Q954 1032 907.0 1117.0Q860 1202 808.5 1250.5Q757 1299 706 1299Q652 1299 615.5 1263.0Q579 1227 560.5 1157.0Q542 1087 542 983Q542 849 563.5 720.5Q585 592 622.0 480.0Q659 368 706.0 283.0Q753 198 804.5 149.5Q856 101 907 101Q962 101 998.0 137.0Q1034 173 1052.5 243.0Q1071 313 1071 417Z"/></g><g transform="translate(3154 0)"><path d="M591 574Q567 521 538.5 452.0Q510 383 480.0 305.5Q450 228 420.0 148.5Q390 69 361.0 -6.5Q332 -82 306.0 -146.5Q280 -211 258 -257Q237 -301 193.0 -311.5Q149 -322 93 -296Q37 -270 16.5 -229.5Q-4 -189 17 -145Q39 -98 71.0 -36.5Q103 25 142.5 95.5Q182 166 223.5 240.0Q265 314 305.0 387.0Q345 460 379.5 525.5Q414 591 439 644Q464 697 492.0 766.0Q520 835 550.0 912.5Q580 990 610.0 1069.5Q640 1149 669.0 1224.5Q698 1300 724.5 1364.5Q751 1429 772 1475Q793 1519 837.0 1529.5Q881 1540 937 1514Q993 1488 1013.5 1447.5Q1034 1407 1013 1363Q992 1317 959.5 1255.0Q927 1193 887.5 1122.5Q848 1052 806.5 978.0Q765 904 725.0 831.0Q685 758 650.5 692.5Q616 627 591 574Z"/></g><g transform="translate(4178 0)"><path d="M1386 401Q1386 322 1344.5 244.0Q1303 166 1225.0 101.5Q1147 37 1037.0 -1.5Q927 -40 789 -40Q565 -40 401.5 53.5Q238 147 149.0 312.5Q60 478 60 693Q60 854 113.0 990.0Q166 1126 261.5 1227.0Q357 1328 484.5 1384.0Q612 1440 760 1440Q853 1440 910.5 1424.0Q968 1408 1003.0 1391.5Q1038 1375 1063 1375Q1092 1375 1110.5 1390.5Q1129 1406 1148.5 1421.0Q1168 1436 1198 1436Q1223 1436 1239.5 1420.0Q1256 1404 1267 1366L1370 1012Q1379 981 1362.5 956.5Q1346 932 1315 924Q1281 916 1253.0 928.5Q1225 941 1210 976Q1159 1096 1098.0 1162.5Q1037 1229 970.5 1255.5Q904 1282 835 1282Q762 1282 704.5 1247.0Q647 1212 607.0 1146.0Q567 1080 546.0 986.5Q525 893 525 776Q525 585 576.0 457.5Q627 330 717.5 266.5Q808 203 927 203Q1031 203 1118.0 256.5Q1205 310 1262 414Q1279 446 1299.0 456.0Q1319 466 1343 461Q1366 457 1376.0 441.5Q1386 426 1386 401Z"/></g><g transform="translate(5622 0)"><path d="M357 596H941L942 447H355ZM518 68Q518 37 497.5 18.5Q477 0 433 0H113Q70 0 49.0 18.5Q28 37 28 68Q28 90 38.5 105.5Q49 121 73 136L94 149Q127 169 145.5 198.5Q164 228 186 301L442 1128Q460 1187 455.0 1213.5Q450 1240 414 1257Q386 1271 374.5 1289.0Q363 1307 363 1332Q363 1364 384.0 1382.0Q405 1400 449 1400H1092Q1136 1400 1157.0 1382.0Q1178 1364 1178 1332Q1178 1305 1165.5 1287.5Q1153 1270 1130 1259Q1105 1247 1100.5 1226.5Q1096 1206 1110 1162L1385 291Q1406 224 1423.0 192.5Q1440 161 1468 147Q1503 129 1515.0 112.0Q1527 95 1527 68Q1527 37 1506.0 18.5Q1485 0 1441 0H913Q868 0 847.5 18.5Q827 37 827 68Q827 93 840.0 108.5Q853 124 879 136L911 151Q937 163 933.0 183.5Q929 204 915 250L621 1225L663 1254L376 327Q360 276 359.5 244.5Q359 213 378.0 191.5Q397 170 439 148L467 134Q490 122 504.0 107.5Q518 93 518 68Z"/></g><g transform="translate(7198 0)"><path d="M685 -30Q616 -30 566.0 -16.0Q516 -2 482.0 12.0Q448 26 425 26Q401 26 381.5 16.5Q362 7 343.5 -5.0Q325 -17 306.0 -26.5Q287 -36 265 -36Q234 -36 214.0 -18.0Q194 0 187 42L130 383Q126 412 139.5 433.0Q153 454 184 465Q218 477 243.5 464.5Q269 452 288 415Q351 297 410.0 232.0Q469 167 528.5 141.5Q588 116 651 116Q734 116 784.0 154.5Q834 193 834 264Q834 312 810.0 348.0Q786 384 715.0 418.0Q644 452 502 493Q346 539 252.0 603.0Q158 667 116.0 760.0Q74 853 74 982Q74 1111 137.0 1211.5Q200 1312 316.5 1369.0Q433 1426 591 1426Q673 1426 730.5 1412.0Q788 1398 829.0 1383.5Q870 1369 900 1369Q925 1369 944.5 1384.5Q964 1400 986.5 1416.0Q1009 1432 1043 1432Q1075 1432 1097.0 1411.5Q1119 1391 1135 1334L1224 1006Q1234 969 1221.0 940.5Q1208 912 1175 901Q1141 890 1115.5 903.0Q1090 916 1073 948Q1009 1074 936.5 1146.5Q864 1219 790.5 1249.5Q717 1280 648 1280Q569 1280 525.5 1236.5Q482 1193 482 1124Q482 1080 504.0 1043.5Q526 1007 595.5 969.0Q665 931 805 882Q958 829 1050.0 764.5Q1142 700 1183.5 614.5Q1225 529 1225 413Q1225 290 1160.0 189.5Q1095 89 974.5 29.5Q854 -30 685 -30Z"/></g><g transform="translate(8495 0)"><path d="M424 737H1271V588H424ZM694 222Q694 197 707.0 181.5Q720 166 745 156L783 142Q835 122 835 68Q835 37 814.0 18.5Q793 0 749 0H175Q131 0 110.0 18.5Q89 37 89 68Q89 122 141 142L179 156Q205 166 217.5 181.5Q230 197 230 222V1178Q230 1203 217.5 1218.5Q205 1234 179 1244L141 1258Q89 1278 89 1332Q89 1364 110.0 1382.0Q131 1400 175 1400H749Q793 1400 814.0 1382.0Q835 1364 835 1332Q835 1278 783 1258L745 1244Q720 1234 707.0 1218.5Q694 1203 694 1178ZM1575 222Q1575 197 1588.0 181.5Q1601 166 1626 156L1664 142Q1716 122 1716 68Q1716 37 1695.0 18.5Q1674 0 1630 0H1056Q1012 0 991.0 18.5Q970 37 970 68Q970 122 1022 142L1060 156Q1086 166 1098.5 181.5Q1111 197 1111 222V1178Q1111 1203 1098.5 1218.5Q1086 1234 1060 1244L1022 1258Q970 1278 970 1332Q970 1364 991.0 1382.0Q1012 1400 1056 1400H1630Q1674 1400 1695.0 1382.0Q1716 1364 1716 1332Q1716 1278 1664 1258L1626 1244Q1601 1234 1588.0 1218.5Q1575 1203 1575 1178Z"/></g><g transform="translate(10300 0)"><path d="M899 1400Q945 1400 977.0 1408.0Q1009 1416 1035.5 1423.5Q1062 1431 1088 1431Q1136 1431 1160.0 1407.5Q1184 1384 1200 1328L1288 1024Q1297 993 1278.5 971.5Q1260 950 1227 945Q1201 941 1175.0 950.5Q1149 960 1132 994Q1078 1102 1027.0 1158.5Q976 1215 922.0 1236.0Q868 1257 802 1257H694V222Q694 197 705.5 179.5Q717 162 745 156L805 143Q837 136 851.0 118.5Q865 101 865 68Q865 37 844.0 18.5Q823 0 779 0H175Q131 0 110.0 18.5Q89 37 89 68Q89 122 141 142L179 156Q205 166 217.5 181.5Q230 197 230 222V1178Q230 1203 217.5 1218.5Q205 1234 179 1244L141 1258Q89 1278 89 1332Q89 1364 110.0 1382.0Q131 1400 175 1400ZM527 739H797Q860 739 887.0 764.0Q914 789 939 864Q949 894 967.0 906.0Q985 918 1009 918Q1067 918 1080 863L1158 545Q1167 509 1156.0 489.0Q1145 469 1119 459Q1091 449 1066.5 457.5Q1042 466 1020 495Q991 536 965.5 558.5Q940 581 907.0 590.0Q874 599 821 599H527Z"/></g><g transform="translate(11604 0)"><path d="M783 1258 745 1244Q720 1234 707.0 1218.5Q694 1203 694 1178V218Q694 176 714.0 159.5Q734 143 771 143H848Q901 143 940.5 158.0Q980 173 1015.0 213.5Q1050 254 1087 332L1154 472Q1171 507 1197.0 518.5Q1223 530 1256 520Q1290 510 1304.0 487.0Q1318 464 1307 425L1207 72Q1191 17 1167.0 -9.5Q1143 -36 1095 -36Q1069 -36 1043.0 -27.0Q1017 -18 984.5 -9.0Q952 0 906 0H175Q131 0 110.0 18.5Q89 37 89 68Q89 122 141 142L179 156Q205 166 217.5 181.5Q230 197 230 222V1178Q230 1203 217.5 1218.5Q205 1234 179 1244L141 1258Q89 1278 89 1332Q89 1364 110.0 1382.0Q131 1400 175 1400H749Q793 1400 814.0 1382.0Q835 1364 835 1332Q835 1278 783 1258Z"/></g><g transform="translate(12938 0)"><path d="M799 1440Q974 1440 1112.5 1386.5Q1251 1333 1348.0 1234.0Q1445 1135 1496.5 997.5Q1548 860 1548 691Q1548 538 1497.0 405.0Q1446 272 1350.0 172.0Q1254 72 1117.5 16.0Q981 -40 810 -40Q636 -40 497.5 13.5Q359 67 261.5 166.0Q164 265 112.5 402.5Q61 540 61 709Q61 862 112.0 995.0Q163 1128 259.0 1228.0Q355 1328 491.5 1384.0Q628 1440 799 1440ZM1071 417Q1071 551 1049.5 679.5Q1028 808 991.0 920.0Q954 1032 907.0 1117.0Q860 1202 808.5 1250.5Q757 1299 706 1299Q652 1299 615.5 1263.0Q579 1227 560.5 1157.0Q542 1087 542 983Q542 849 563.5 720.5Q585 592 622.0 480.0Q659 368 706.0 283.0Q753 198 804.5 149.5Q856 101 907 101Q962 101 998.0 137.0Q1034 173 1052.5 243.0Q1071 313 1071 417Z"/></g><g transform="translate(14547 0)"><path d="M1062 1089 1219 1067 957 223Q947 195 942.0 168.5Q937 142 937 105V65Q937 33 918.5 16.5Q900 0 873 0H526Q498 0 479.5 16.5Q461 33 461 65V105Q461 125 458.0 140.5Q455 156 445 190L152 1170Q142 1206 127.5 1222.5Q113 1239 87 1250L51 1265Q29 1274 19.5 1292.5Q10 1311 10 1333Q10 1364 30.5 1382.0Q51 1400 94 1400H652Q696 1400 716.5 1382.0Q737 1364 737 1333Q737 1286 693 1270L660 1259Q635 1251 629.5 1224.0Q624 1197 637 1152L907 226L757 123ZM1773 1332Q1773 1364 1794.0 1382.0Q1815 1400 1858 1400H2153Q2197 1400 2217.5 1382.0Q2238 1364 2238 1332Q2238 1309 2227.0 1294.5Q2216 1280 2187 1266L2159 1252Q2121 1233 2096.0 1200.0Q2071 1167 2053 1100L1817 223Q1805 179 1801.0 156.5Q1797 134 1797 105V65Q1797 33 1778.5 16.5Q1760 0 1733 0H1377Q1350 0 1331.5 16.5Q1313 33 1313 65V105Q1313 122 1310.0 138.0Q1307 154 1296 190L1017 1170Q1003 1219 993.5 1234.0Q984 1249 967 1256L932 1271Q909 1281 899.0 1295.5Q889 1310 889 1332Q889 1364 910.0 1382.0Q931 1400 974 1400H1512Q1556 1400 1576.5 1382.0Q1597 1364 1597 1332Q1597 1308 1585.0 1292.0Q1573 1276 1547 1266L1519 1256Q1495 1248 1489.0 1226.0Q1483 1204 1497 1151L1755 223L1618 123L1893 1120Q1907 1170 1896.0 1204.0Q1885 1238 1838 1259L1814 1270Q1793 1280 1783.0 1295.0Q1773 1310 1773 1332Z"/></g></g></svg>
