<svg xmlns="http://www.w3.org/2000/svg" viewBox="0 0 512 512" width="512" height="512" role="img" aria-label="NoCashFlow">
  <rect width="512" height="512" fill="#B0442B"/>
  <g fill="#F3EEE3" transform="matrix(0.131111 0 0 -0.131111 76.927518 314.344212)">
    <path d="M550 68Q550 37 529.5 19.0Q509 1 465 0H154Q110 1 89.0 19.0Q68 37 68 68Q68 120 126 145L148 155Q193 176 211.5 203.0Q230 230 230 288V1034Q230 1072 223.0 1092.5Q216 1113 190 1147L113 1250Q91 1281 82.5 1298.5Q74 1316 74 1335Q74 1366 95.0 1383.0Q116 1400 150 1400H487Q527 1400 552.5 1386.5Q578 1373 604 1336L1251 427L1191 250V1112Q1191 1168 1175.0 1195.0Q1159 1222 1109 1245L1088 1255Q1030 1283 1030 1332Q1030 1364 1051.0 1382.0Q1072 1400 1115 1400H1426Q1470 1400 1491.0 1382.0Q1512 1364 1512 1332Q1512 1281 1454 1255L1432 1245Q1387 1225 1368.5 1198.0Q1350 1171 1350 1112V368Q1350 328 1356.5 297.0Q1363 266 1381 241L1443 156Q1469 122 1474.0 104.5Q1479 87 1479 68Q1479 37 1458.0 18.5Q1437 0 1402 0H1012Q946 0 946 53Q946 71 938.5 88.5Q931 106 897 153L247 1064L389 1153V287Q389 233 405.5 206.0Q422 179 471 155L492 145Q550 119 550 68Z"/>
    <g transform="translate(1640 0)"><path d="M591 574Q567 521 538.5 452.0Q510 383 480.0 305.5Q450 228 420.0 148.5Q390 69 361.0 -6.5Q332 -82 306.0 -146.5Q280 -211 258 -257Q237 -301 193.0 -311.5Q149 -322 93 -296Q37 -270 16.5 -229.5Q-4 -189 17 -145Q39 -98 71.0 -36.5Q103 25 142.5 95.5Q182 166 223.5 240.0Q265 314 305.0 387.0Q345 460 379.5 525.5Q414 591 439 644Q464 697 492.0 766.0Q520 835 550.0 912.5Q580 990 610.0 1069.5Q640 1149 669.0 1224.5Q698 1300 724.5 1364.5Q751 1429 772 1475Q793 1519 837.0 1529.5Q881 1540 937 1514Q993 1488 1013.5 1447.5Q1034 1407 1013 1363Q992 1317 959.5 1255.0Q927 1193 887.5 1122.5Q848 1052 806.5 978.0Q765 904 725.0 831.0Q685 758 650.5 692.5Q616 627 591 574Z"/></g>
  </g>
  <rect x="167.52" y="388.36" width="176.96" height="10.23" rx="5.11" fill="#F3EEE3"/>
</svg>
